<svg xmlns="http://www.w3.org/2000/svg" viewBox="0 0 64 64">
    <path d="M13.93066,36.47852c-4.36429,16.27207-.64372,26.106,18.06943,25.52117,18.70275.57883,22.43653-9.2271,18.07018-25.518a39.25251,39.25251,0,0,0-1.73433-4.7932,31.84755,31.84755,0,0,1-2.36377-14.82959C46.74927,4.29825,31.35337-2.91984,22.289,5.91231A13.92666,13.92666,0,0,0,18.03272,16.9585a31.13639,31.13639,0,0,1-2.36915,14.74072A39.60226,39.60226,0,0,0,13.93066,36.47852ZM32,60c-17.20191.54606-19.88849-7.71633-16.35992-22.14618a20.92711,20.92711,0,0,0,15.72076-4.66388.99226.99226,0,0,1,1.27832.00049,20.92928,20.92928,0,0,0,15.72076,4.66339C51.892,52.29608,49.1914,60.545,32,60ZM20.02783,16.81934a11.99826,11.99826,0,0,1,23.935-1.71483c-.28937,5.83122.04752,11.80733,2.391,17.01.51671,1.25139,1.03747,2.50535,1.43083,3.80294a19.03421,19.03421,0,0,1-13.87115-4.2685,3.00632,3.00632,0,0,0-3.82715-.00048,19.0314,19.0314,0,0,1-13.86988,4.269,34.71092,34.71092,0,0,1,1.28-3.41791A33.11335,33.11335,0,0,0,20.02783,16.81934Z"/>
    <path d="M32,26a9.01047,9.01047,0,0,0,9-9c-.47255-11.931-17.52926-11.92766-18,.00009A9.01047,9.01047,0,0,0,32,26Zm0-2a7.00521,7.00521,0,0,1-6.93079-6.06958A9.01125,9.01125,0,0,0,32,13.10413a9.01125,9.01125,0,0,0,6.93079,4.82629A7.00521,7.00521,0,0,1,32,24Zm-6.66266-9.13947A7.03366,7.03366,0,0,1,30.91382,10.093a7.01453,7.01453,0,0,1-5.8208,5.8208A6.83815,6.83815,0,0,1,25.33734,14.86053Zm8.80213-4.52319A7.03366,7.03366,0,0,1,38.907,15.91382a7.01453,7.01453,0,0,1-5.8208-5.8208A6.83815,6.83815,0,0,1,34.13947,10.33734Z"/>
    <path d="M36.49854,40.50977A4.64145,4.64145,0,0,0,27.4834,40.52a4.641,4.641,0,0,0-2.78858,8.57471c-1.92662,4.53364,3.83466,8.41922,7.29737,5.30517a4.6465,4.6465,0,0,0,7.30127-5.2959A4.662,4.662,0,0,0,36.49854,40.50977Zm1.61181,6.96728a1.72924,1.72924,0,0,0-.708,2.29883A2.647,2.647,0,0,1,33.209,52.80225a1.74552,1.74552,0,0,0-2.43359-.00049,2.64156,2.64156,0,0,1-4.1856-3.04291,1.74471,1.74471,0,0,0-.74848-2.31305,2.63744,2.63744,0,0,1,1.60051-4.91751,1.744,1.744,0,0,0,1.96443-1.42868,2.6422,2.6422,0,0,1,5.16992-.00879,1.76007,1.76007,0,0,0,1.95947,1.42578A2.65617,2.65617,0,0,1,38.11035,47.47705Z"/>
    <path d="M32,42.72559a4.00016,4.00016,0,0,0,.00009,8A4.00016,4.00016,0,0,0,32,42.72559Zm0,6a2.00021,2.00021,0,0,1,.00009-4A2.00021,2.00021,0,0,1,32,48.72559Z"/>
</svg>
